<?xml version="1.0" encoding="UTF-8" standalone="no"?>
<!-- Generator: IcoMoon.io -->

<svg
   xmlns:dc="http://purl.org/dc/elements/1.1/"
   xmlns:cc="http://creativecommons.org/ns#"
   xmlns:rdf="http://www.w3.org/1999/02/22-rdf-syntax-ns#"
   xmlns:svg="http://www.w3.org/2000/svg"
   xmlns="http://www.w3.org/2000/svg"
   xmlns:sodipodi="http://sodipodi.sourceforge.net/DTD/sodipodi-0.dtd"
   xmlns:inkscape="http://www.inkscape.org/namespaces/inkscape"
   width="512"
   height="512"
   viewBox="0 0 512 512"
   id="svg2"
   version="1.1"
   inkscape:version="0.48.3.1 r9886"
   sodipodi:docname="a.svg">
  <metadata
     id="metadata74">
    <rdf:RDF>
      <cc:Work
         rdf:about="">
        <dc:format>image/svg+xml</dc:format>
        <dc:type
           rdf:resource="http://purl.org/dc/dcmitype/StillImage" />
        <dc:title></dc:title>
      </cc:Work>
    </rdf:RDF>
  </metadata>
  <defs
     id="defs72" />
  <sodipodi:namedview
     pagecolor="#ffffff"
     bordercolor="#666666"
     borderopacity="1"
     objecttolerance="10"
     gridtolerance="10"
     guidetolerance="10"
     inkscape:pageopacity="0"
     inkscape:pageshadow="2"
     inkscape:window-width="1178"
     inkscape:window-height="626"
     id="namedview70"
     showgrid="false"
     inkscape:zoom="0.89027847"
     inkscape:cx="278.59243"
     inkscape:cy="264.61898"
     inkscape:window-x="7"
     inkscape:window-y="24"
     inkscape:window-maximized="0"
     inkscape:current-layer="g34392" />
  <g
     id="g4">
    <line
       y2="512"
       y1="0"
       x2="32"
       x1="32"
       id="line6"
       stroke="#B35047" />
    <line
       y2="512"
       y1="0"
       x2="64"
       x1="64"
       id="line8"
       stroke="#B35047" />
    <line
       y2="512"
       y1="0"
       x2="96"
       x1="96"
       id="line10"
       stroke="#B35047" />
    <line
       y2="512"
       y1="0"
       x2="128"
       x1="128"
       id="line12"
       stroke="#B35047" />
    <line
       y2="512"
       y1="0"
       x2="160"
       x1="160"
       id="line14"
       stroke="#B35047" />
    <line
       y2="512"
       y1="0"
       x2="192"
       x1="192"
       id="line16"
       stroke="#B35047" />
    <line
       y2="512"
       y1="0"
       x2="224"
       x1="224"
       id="line18"
       stroke="#B35047" />
    <line
       y2="512"
       y1="0"
       x2="256"
       x1="256"
       id="line20"
       stroke="#B35047" />
    <line
       y2="512"
       y1="0"
       x2="288"
       x1="288"
       id="line22"
       stroke="#B35047" />
    <line
       y2="512"
       y1="0"
       x2="320"
       x1="320"
       id="line24"
       stroke="#B35047" />
    <line
       y2="512"
       y1="0"
       x2="352"
       x1="352"
       id="line26"
       stroke="#B35047" />
    <line
       y2="512"
       y1="0"
       x2="384"
       x1="384"
       id="line28"
       stroke="#B35047" />
    <line
       y2="512"
       y1="0"
       x2="416"
       x1="416"
       id="line30"
       stroke="#B35047" />
    <line
       y2="512"
       y1="0"
       x2="448"
       x1="448"
       id="line32"
       stroke="#B35047" />
    <line
       y2="512"
       y1="0"
       x2="480"
       x1="480"
       id="line34"
       stroke="#B35047" />
    <line
       y2="32"
       y1="32"
       x2="512"
       x1="0"
       id="line36"
       stroke="#B35047" />
    <line
       y2="64"
       y1="64"
       x2="512"
       x1="0"
       id="line38"
       stroke="#B35047" />
    <line
       y2="96"
       y1="96"
       x2="512"
       x1="0"
       id="line40"
       stroke="#B35047" />
    <line
       y2="128"
       y1="128"
       x2="512"
       x1="0"
       id="line42"
       stroke="#B35047" />
    <line
       y2="160"
       y1="160"
       x2="512"
       x1="0"
       id="line44"
       stroke="#B35047" />
    <line
       y2="192"
       y1="192"
       x2="512"
       x1="0"
       id="line46"
       stroke="#B35047" />
    <line
       y2="224"
       y1="224"
       x2="512"
       x1="0"
       id="line48"
       stroke="#B35047" />
    <line
       y2="256"
       y1="256"
       x2="512"
       x1="0"
       id="line50"
       stroke="#B35047" />
    <line
       y2="288"
       y1="288"
       x2="512"
       x1="0"
       id="line52"
       stroke="#B35047" />
    <line
       y2="320"
       y1="320"
       x2="512"
       x1="0"
       id="line54"
       stroke="#B35047" />
    <line
       y2="352"
       y1="352"
       x2="512"
       x1="0"
       id="line56"
       stroke="#B35047" />
    <line
       y2="384"
       y1="384"
       x2="512"
       x1="0"
       id="line58"
       stroke="#B35047" />
    <line
       y2="416"
       y1="416"
       x2="512"
       x1="0"
       id="line60"
       stroke="#B35047" />
    <line
       y2="448"
       y1="448"
       x2="512"
       x1="0"
       id="line62"
       stroke="#B35047" />
    <line
       y2="480"
       y1="480"
       x2="512"
       x1="0"
       id="line64"
       stroke="#B35047" />
    <rect
       height="512"
       width="512"
       y="0"
       x="0"
       id="rect66"
       stroke="#B35047"
       fill="none" />
  </g>
  <g
     id="g22601"
     transform="matrix(18.33654,0,0,18.33654,-5773.1906,-21749.694)"
     style="fill:#000000">
    <g
       id="g22603"
       transform="translate(0,2.1027054)"
       style="fill:#000000">
      <g
         style="font-size:24.81047249px;font-style:normal;font-variant:normal;font-weight:bold;font-stretch:normal;line-height:125%;letter-spacing:0px;word-spacing:0px;fill:#008080;fill-opacity:1;stroke:none;font-family:Tibetan Machine Uni;-inkscape-font-specification:Tibetan Machine Uni Bold"
         id="text22661" />
    </g>
  </g>
  <g
     transform="matrix(18.754189,0,0,18.754189,-7698.1539,-18182.59)"
     id="g34392"
     style="fill:#000000">
    <path
       inkscape:connector-curvature="0"
       style="color:#000000;fill:#000000;fill-opacity:1;fill-rule:nonzero;stroke:none;stroke-width:22;marker:none;visibility:visible;display:inline;overflow:visible;enable-background:accumulate"
       d="M 415.35541,969.52153 L 420.81252,975.00697 L 415.92362,979.93254 L 410.4665,974.50375 L 410.4665,975.68515 L 410.49816,975.71681 L 415.33541,980.52407 L 415.92195,981.10894 L 418.05981,983.23347 L 418.65801,983.82833 L 423.53358,988.67558 L 421.38573,990.81177 L 421.3724,990.79844 L 416.51848,985.97952 L 415.92028,985.38465 L 413.78243,983.26179 L 413.19589,982.67859 L 410.4715,979.97419 L 410.4665,979.9692 L 410.4665,981.14227 L 412.60936,983.27012 L 410.46817,985.42631 L 410.4665,986.60105 L 413.19756,983.85166 L 415.33375,985.97285 L 410.4765,990.8501 L 410.4765,992.05483 L 415.93361,986.56772 L 420.79919,991.39664 L 415.34541,996.8221 L 416.45017,996.8221 L 429.58556,983.83 L 431.72509,985.97952 L 426.85784,990.81177 L 426.26964,991.39664 L 425.48981,992.1698 L 424.12178,993.5295 L 423.53525,994.1127 L 420.80586,996.8221 L 421.97893,996.8221 L 424.12178,994.69591 L 426.26464,996.8221 L 427.43771,996.8221 L 424.70832,994.1127 L 426.85617,991.98151 L 431.72509,996.8221 L 432.89816,996.8221 L 427.44604,991.39664 L 432.30996,986.56772 L 437.76707,992.05483 L 437.76707,990.92008 L 424.72165,977.74969 L 424.71832,977.74636 L 424.71332,977.74136 L 426.84618,975.59684 L 431.73342,980.51741 L 432.32162,981.10894 L 434.46114,983.26179 L 435.04601,983.85166 L 437.77707,986.60105 L 437.7754,985.42631 L 435.63421,983.27012 L 437.77707,981.14227 L 437.77707,979.9692 L 435.04768,982.67859 L 432.90982,980.52574 L 437.77707,975.68515 L 437.77707,974.50375 L 432.31995,979.93254 L 427.43105,975.00864 L 432.88816,969.52153 L 431.71509,969.52153 L 431.65843,969.57818 L 426.84284,974.41544 L 426.25631,975.00364 L 424.71998,976.54496 L 424.12178,977.14649 L 423.53025,977.74136 L 418.64801,982.6436 L 416.52515,980.5324 L 416.51015,980.51741 L 419.41284,977.59473 L 427.3494,969.52153 L 426.25964,969.52153 L 424.12178,971.67438 L 421.98393,969.52153 L 420.81086,969.52153 L 423.53525,972.26425 L 421.40073,974.41377 L 416.52848,969.52153 L 415.35541,969.52153 z M 427.3494,969.52153 L 427.43105,969.5232 L 427.43271,969.52153 L 427.3494,969.52153 z M 424.12178,978.33623 L 428.99736,983.23846 L 424.12178,988.08905 L 419.24621,983.23846 L 424.12178,978.33623 z"
       id="path4261" />
  </g>
</svg>
