<?xml version="1.0" encoding="UTF-8" standalone="no"?>
<!-- Generator: IcoMoon.io -->

<svg
   xmlns:dc="http://purl.org/dc/elements/1.1/"
   xmlns:cc="http://creativecommons.org/ns#"
   xmlns:rdf="http://www.w3.org/1999/02/22-rdf-syntax-ns#"
   xmlns:svg="http://www.w3.org/2000/svg"
   xmlns="http://www.w3.org/2000/svg"
   xmlns:sodipodi="http://sodipodi.sourceforge.net/DTD/sodipodi-0.dtd"
   xmlns:inkscape="http://www.inkscape.org/namespaces/inkscape"
   width="512"
   height="512"
   viewBox="0 0 512 512"
   id="svg2"
   version="1.1"
   inkscape:version="0.48.3.1 r9886"
   sodipodi:docname="d.svg">
  <metadata
     id="metadata74">
    <rdf:RDF>
      <cc:Work
         rdf:about="">
        <dc:format>image/svg+xml</dc:format>
        <dc:type
           rdf:resource="http://purl.org/dc/dcmitype/StillImage" />
        <dc:title></dc:title>
      </cc:Work>
    </rdf:RDF>
  </metadata>
  <defs
     id="defs72" />
  <sodipodi:namedview
     pagecolor="#ffffff"
     bordercolor="#666666"
     borderopacity="1"
     objecttolerance="10"
     gridtolerance="10"
     guidetolerance="10"
     inkscape:pageopacity="0"
     inkscape:pageshadow="2"
     inkscape:window-width="1178"
     inkscape:window-height="626"
     id="namedview70"
     showgrid="false"
     inkscape:zoom="0.89027847"
     inkscape:cx="278.59243"
     inkscape:cy="264.61898"
     inkscape:window-x="7"
     inkscape:window-y="24"
     inkscape:window-maximized="0"
     inkscape:current-layer="g34392" />
  <g
     id="g4">
    <line
       y2="512"
       y1="0"
       x2="32"
       x1="32"
       id="line6"
       stroke="#B35047" />
    <line
       y2="512"
       y1="0"
       x2="64"
       x1="64"
       id="line8"
       stroke="#B35047" />
    <line
       y2="512"
       y1="0"
       x2="96"
       x1="96"
       id="line10"
       stroke="#B35047" />
    <line
       y2="512"
       y1="0"
       x2="128"
       x1="128"
       id="line12"
       stroke="#B35047" />
    <line
       y2="512"
       y1="0"
       x2="160"
       x1="160"
       id="line14"
       stroke="#B35047" />
    <line
       y2="512"
       y1="0"
       x2="192"
       x1="192"
       id="line16"
       stroke="#B35047" />
    <line
       y2="512"
       y1="0"
       x2="224"
       x1="224"
       id="line18"
       stroke="#B35047" />
    <line
       y2="512"
       y1="0"
       x2="256"
       x1="256"
       id="line20"
       stroke="#B35047" />
    <line
       y2="512"
       y1="0"
       x2="288"
       x1="288"
       id="line22"
       stroke="#B35047" />
    <line
       y2="512"
       y1="0"
       x2="320"
       x1="320"
       id="line24"
       stroke="#B35047" />
    <line
       y2="512"
       y1="0"
       x2="352"
       x1="352"
       id="line26"
       stroke="#B35047" />
    <line
       y2="512"
       y1="0"
       x2="384"
       x1="384"
       id="line28"
       stroke="#B35047" />
    <line
       y2="512"
       y1="0"
       x2="416"
       x1="416"
       id="line30"
       stroke="#B35047" />
    <line
       y2="512"
       y1="0"
       x2="448"
       x1="448"
       id="line32"
       stroke="#B35047" />
    <line
       y2="512"
       y1="0"
       x2="480"
       x1="480"
       id="line34"
       stroke="#B35047" />
    <line
       y2="32"
       y1="32"
       x2="512"
       x1="0"
       id="line36"
       stroke="#B35047" />
    <line
       y2="64"
       y1="64"
       x2="512"
       x1="0"
       id="line38"
       stroke="#B35047" />
    <line
       y2="96"
       y1="96"
       x2="512"
       x1="0"
       id="line40"
       stroke="#B35047" />
    <line
       y2="128"
       y1="128"
       x2="512"
       x1="0"
       id="line42"
       stroke="#B35047" />
    <line
       y2="160"
       y1="160"
       x2="512"
       x1="0"
       id="line44"
       stroke="#B35047" />
    <line
       y2="192"
       y1="192"
       x2="512"
       x1="0"
       id="line46"
       stroke="#B35047" />
    <line
       y2="224"
       y1="224"
       x2="512"
       x1="0"
       id="line48"
       stroke="#B35047" />
    <line
       y2="256"
       y1="256"
       x2="512"
       x1="0"
       id="line50"
       stroke="#B35047" />
    <line
       y2="288"
       y1="288"
       x2="512"
       x1="0"
       id="line52"
       stroke="#B35047" />
    <line
       y2="320"
       y1="320"
       x2="512"
       x1="0"
       id="line54"
       stroke="#B35047" />
    <line
       y2="352"
       y1="352"
       x2="512"
       x1="0"
       id="line56"
       stroke="#B35047" />
    <line
       y2="384"
       y1="384"
       x2="512"
       x1="0"
       id="line58"
       stroke="#B35047" />
    <line
       y2="416"
       y1="416"
       x2="512"
       x1="0"
       id="line60"
       stroke="#B35047" />
    <line
       y2="448"
       y1="448"
       x2="512"
       x1="0"
       id="line62"
       stroke="#B35047" />
    <line
       y2="480"
       y1="480"
       x2="512"
       x1="0"
       id="line64"
       stroke="#B35047" />
    <rect
       height="512"
       width="512"
       y="0"
       x="0"
       id="rect66"
       stroke="#B35047"
       fill="none" />
  </g>
  <g
     id="g22601"
     transform="matrix(18.33654,0,0,18.33654,-5773.1906,-21749.694)"
     style="fill:#000000">
    <g
       id="g22603"
       transform="translate(0,2.1027054)"
       style="fill:#000000">
      <g
         style="font-size:24.81047249px;font-style:normal;font-variant:normal;font-weight:bold;font-stretch:normal;line-height:125%;letter-spacing:0px;word-spacing:0px;fill:#008080;fill-opacity:1;stroke:none;font-family:Tibetan Machine Uni;-inkscape-font-specification:Tibetan Machine Uni Bold"
         id="text22661" />
    </g>
  </g>
  <g
     transform="matrix(18.754189,0,0,18.754189,-7698.1539,-18182.59)"
     id="g34392"
     style="fill:#000000">
    <path
       inkscape:connector-curvature="0"
       style="color:#000000;fill:#000000;fill-opacity:1;fill-rule:nonzero;stroke:none;stroke-width:22;marker:none;visibility:visible;display:inline;overflow:visible;enable-background:accumulate"
       d="M 415.32042,969.50153 C 415.32088,971.97223 416.34424,974.20411 417.98982,975.79679 C 415.64633,974.96566 413.12325,974.51208 410.49483,974.51208 C 410.48872,974.51208 410.48262,974.51207 410.4765,974.51208 L 410.4765,975.69348 C 410.66771,975.68826 410.85891,975.68515 411.05137,975.68515 C 422.47651,975.68515 431.73842,984.94705 431.73842,996.37219 C 431.73842,996.51612 431.73635,996.65887 431.73342,996.8021 L 432.90982,996.8021 C 432.8958,994.27636 432.46392,991.84938 431.6801,989.58704 C 433.25617,991.10509 435.3995,992.03816 437.76041,992.03816 C 437.76597,992.03816 437.77151,992.03817 437.77707,992.03816 L 437.77707,990.86509 C 437.77152,990.8651 437.76596,990.86509 437.76041,990.86509 C 433.56835,990.86509 430.16877,987.46718 430.16877,983.27512 C 430.16877,979.08306 433.56835,975.68515 437.76041,975.68515 C 437.76596,975.68515 437.77152,975.68514 437.77707,975.68515 L 437.77707,974.51208 C 437.77151,974.51207 437.76597,974.51208 437.76041,974.51208 C 432.92049,974.51208 428.9957,978.4352 428.9957,983.27512 C 428.9957,983.64462 429.01794,984.00906 429.06235,984.36654 C 427.39377,981.90496 425.24969,979.79323 422.76042,978.16293 C 423.19243,978.22842 423.63486,978.26291 424.08513,978.26291 C 428.92449,978.26291 432.84727,974.34068 432.84817,969.50153 L 431.6751,969.50153 C 431.6742,973.69282 428.27663,977.08983 424.08513,977.08983 C 419.89363,977.08983 416.49439,973.69282 416.49349,969.50153 L 415.32042,969.50153 z M 420.77753,969.50153 C 420.77844,971.32666 422.25979,972.80579 424.08513,972.80579 C 425.91047,972.80579 427.39015,971.32666 427.39106,969.50153 L 426.21799,969.50153 C 426.21708,970.67877 425.26258,971.63272 424.08513,971.63272 C 422.90768,971.63272 421.95151,970.67877 421.95061,969.50153 L 420.77753,969.50153 z M 410.4765,979.96919 L 410.4765,981.14559 C 410.57531,981.14374 410.67385,981.14226 410.7731,981.14226 C 419.33805,981.14226 426.2813,988.08552 426.2813,996.65046 C 426.2813,996.70121 426.28012,996.75147 426.27964,996.8021 L 427.45271,996.8021 C 427.38482,987.49373 419.8192,979.96919 410.49483,979.96919 C 410.48873,979.96919 410.4826,979.96918 410.4765,979.96919 z M 437.76041,979.96919 C 435.93451,979.96919 434.45281,981.44922 434.45281,983.27512 C 434.45281,985.10102 435.93451,986.58105 437.76041,986.58105 C 437.766,986.58105 437.77149,986.58107 437.77707,986.58105 L 437.77707,985.40798 C 437.77151,985.40802 437.76598,985.40798 437.76041,985.40798 C 436.5824,985.40798 435.62588,984.45313 435.62588,983.27512 C 435.62588,982.09711 436.5824,981.14226 437.76041,981.14226 C 437.76598,981.14226 437.77151,981.14222 437.77707,981.14226 L 437.77707,979.96919 C 437.77149,979.96916 437.766,979.96919 437.76041,979.96919 z M 410.4765,985.4263 L 410.4765,986.59938 C 410.48263,986.59937 410.4887,986.59938 410.49483,986.59938 C 416.15724,986.59938 420.75458,991.1558 420.82252,996.8021 L 421.9956,996.8021 C 421.92751,990.50798 416.80507,985.4263 410.49483,985.4263 C 410.4887,985.4263 410.48263,985.4263 410.4765,985.4263 z M 410.56315,990.88175 C 410.53432,990.88175 410.50523,990.88301 410.4765,990.88342 L 410.4765,992.05649 C 410.50549,992.05597 410.53404,992.05482 410.56315,992.05482 C 413.19661,992.05482 415.33498,994.17545 415.36374,996.8021 L 416.53681,996.8021 C 416.50827,993.52733 413.84466,990.88175 410.56315,990.88175 z"
       id="path4567" />
  </g>
</svg>
