<?xml version="1.0" encoding="UTF-8" standalone="no"?>
<!-- Generator: IcoMoon.io -->

<svg
   xmlns:dc="http://purl.org/dc/elements/1.1/"
   xmlns:cc="http://creativecommons.org/ns#"
   xmlns:rdf="http://www.w3.org/1999/02/22-rdf-syntax-ns#"
   xmlns:svg="http://www.w3.org/2000/svg"
   xmlns="http://www.w3.org/2000/svg"
   xmlns:sodipodi="http://sodipodi.sourceforge.net/DTD/sodipodi-0.dtd"
   xmlns:inkscape="http://www.inkscape.org/namespaces/inkscape"
   width="512"
   height="512"
   viewBox="0 0 512 512"
   id="svg2"
   version="1.1"
   inkscape:version="0.48.3.1 r9886"
   sodipodi:docname="case.svg">
  <metadata
     id="metadata74">
    <rdf:RDF>
      <cc:Work
         rdf:about="">
        <dc:format>image/svg+xml</dc:format>
        <dc:type
           rdf:resource="http://purl.org/dc/dcmitype/StillImage" />
        <dc:title></dc:title>
      </cc:Work>
    </rdf:RDF>
  </metadata>
  <defs
     id="defs72" />
  <sodipodi:namedview
     pagecolor="#ffffff"
     bordercolor="#666666"
     borderopacity="1"
     objecttolerance="10"
     gridtolerance="10"
     guidetolerance="10"
     inkscape:pageopacity="0"
     inkscape:pageshadow="2"
     inkscape:window-width="1178"
     inkscape:window-height="626"
     id="namedview70"
     showgrid="false"
     inkscape:zoom="0.89027847"
     inkscape:cx="278.59243"
     inkscape:cy="264.61898"
     inkscape:window-x="7"
     inkscape:window-y="24"
     inkscape:window-maximized="0"
     inkscape:current-layer="g34392" />
  <g
     id="g4">
    <line
       y2="512"
       y1="0"
       x2="32"
       x1="32"
       id="line6"
       stroke="#B35047" />
    <line
       y2="512"
       y1="0"
       x2="64"
       x1="64"
       id="line8"
       stroke="#B35047" />
    <line
       y2="512"
       y1="0"
       x2="96"
       x1="96"
       id="line10"
       stroke="#B35047" />
    <line
       y2="512"
       y1="0"
       x2="128"
       x1="128"
       id="line12"
       stroke="#B35047" />
    <line
       y2="512"
       y1="0"
       x2="160"
       x1="160"
       id="line14"
       stroke="#B35047" />
    <line
       y2="512"
       y1="0"
       x2="192"
       x1="192"
       id="line16"
       stroke="#B35047" />
    <line
       y2="512"
       y1="0"
       x2="224"
       x1="224"
       id="line18"
       stroke="#B35047" />
    <line
       y2="512"
       y1="0"
       x2="256"
       x1="256"
       id="line20"
       stroke="#B35047" />
    <line
       y2="512"
       y1="0"
       x2="288"
       x1="288"
       id="line22"
       stroke="#B35047" />
    <line
       y2="512"
       y1="0"
       x2="320"
       x1="320"
       id="line24"
       stroke="#B35047" />
    <line
       y2="512"
       y1="0"
       x2="352"
       x1="352"
       id="line26"
       stroke="#B35047" />
    <line
       y2="512"
       y1="0"
       x2="384"
       x1="384"
       id="line28"
       stroke="#B35047" />
    <line
       y2="512"
       y1="0"
       x2="416"
       x1="416"
       id="line30"
       stroke="#B35047" />
    <line
       y2="512"
       y1="0"
       x2="448"
       x1="448"
       id="line32"
       stroke="#B35047" />
    <line
       y2="512"
       y1="0"
       x2="480"
       x1="480"
       id="line34"
       stroke="#B35047" />
    <line
       y2="32"
       y1="32"
       x2="512"
       x1="0"
       id="line36"
       stroke="#B35047" />
    <line
       y2="64"
       y1="64"
       x2="512"
       x1="0"
       id="line38"
       stroke="#B35047" />
    <line
       y2="96"
       y1="96"
       x2="512"
       x1="0"
       id="line40"
       stroke="#B35047" />
    <line
       y2="128"
       y1="128"
       x2="512"
       x1="0"
       id="line42"
       stroke="#B35047" />
    <line
       y2="160"
       y1="160"
       x2="512"
       x1="0"
       id="line44"
       stroke="#B35047" />
    <line
       y2="192"
       y1="192"
       x2="512"
       x1="0"
       id="line46"
       stroke="#B35047" />
    <line
       y2="224"
       y1="224"
       x2="512"
       x1="0"
       id="line48"
       stroke="#B35047" />
    <line
       y2="256"
       y1="256"
       x2="512"
       x1="0"
       id="line50"
       stroke="#B35047" />
    <line
       y2="288"
       y1="288"
       x2="512"
       x1="0"
       id="line52"
       stroke="#B35047" />
    <line
       y2="320"
       y1="320"
       x2="512"
       x1="0"
       id="line54"
       stroke="#B35047" />
    <line
       y2="352"
       y1="352"
       x2="512"
       x1="0"
       id="line56"
       stroke="#B35047" />
    <line
       y2="384"
       y1="384"
       x2="512"
       x1="0"
       id="line58"
       stroke="#B35047" />
    <line
       y2="416"
       y1="416"
       x2="512"
       x1="0"
       id="line60"
       stroke="#B35047" />
    <line
       y2="448"
       y1="448"
       x2="512"
       x1="0"
       id="line62"
       stroke="#B35047" />
    <line
       y2="480"
       y1="480"
       x2="512"
       x1="0"
       id="line64"
       stroke="#B35047" />
    <rect
       height="512"
       width="512"
       y="0"
       x="0"
       id="rect66"
       stroke="#B35047"
       fill="none" />
  </g>
  <g
     id="g22601"
     transform="matrix(18.33654,0,0,18.33654,-5773.1906,-21749.694)"
     style="fill:#000000">
    <g
       id="g22603"
       transform="translate(0,2.1027054)"
       style="fill:#000000">
      <g
         style="font-size:24.81047249px;font-style:normal;font-variant:normal;font-weight:bold;font-stretch:normal;line-height:125%;letter-spacing:0px;word-spacing:0px;fill:#008080;fill-opacity:1;stroke:none;font-family:Tibetan Machine Uni;-inkscape-font-specification:Tibetan Machine Uni Bold"
         id="text22661" />
    </g>
  </g>
  <g
     transform="matrix(18.754189,0,0,18.754189,-7698.1539,-18182.59)"
     id="g34392"
     style="fill:#000000">
    <path
       style="color:#000000;fill:#000000;fill-opacity:1;fill-rule:nonzero;stroke:none;stroke-width:22;marker:none;visibility:visible;display:inline;overflow:visible;enable-background:accumulate"
       d="M 91.40625 0 C 91.54203 34.12756 119.27806 61.75 153.4375 61.75 C 170.22344 61.75 185.43051 55.052857 196.59375 44.21875 C 202.5979 89.720725 218.24302 132.20404 241.375 169.53125 C 173.12588 121.68688 90.020655 93.59375 0.34375 93.59375 L 0 93.59375 L 0 115.75 C 3.5859885 115.6521 7.1718188 115.59375 10.78125 115.59375 C 225.05048 115.59375 398.75 289.29327 398.75 503.5625 C 398.75 506.38726 398.71626 509.1895 398.65625 512 L 420.71875 512 C 420.30428 423.01362 392.279 340.55458 344.71875 272.78125 C 381.64106 295.64786 423.56215 311.178 468.5 317.3125 C 457.68221 328.47199 451 343.67257 451 360.4375 C 451 394.33457 478.2344 421.85281 512 422.40625 L 512 400.40625 C 490.38373 399.85863 473 382.18486 473 360.4375 C 473 338.69014 490.38373 321.01618 512 320.46875 L 512 298.21875 C 510.22979 298.25044 508.46521 298.28125 506.6875 298.28125 C 346.059 298.28125 215.84375 168.066 215.84375 7.4375 C 215.84375 4.9486316 215.87524 2.4738651 215.9375 0 L 193.4375 0 C 193.30284 21.977284 175.44648 39.75 153.4375 39.75 C 131.42852 39.75 113.54147 21.977284 113.40625 0 L 91.40625 0 z M 296.0625 0 C 286.78893 20.559842 281.625 43.35801 281.625 67.375 C 281.625 158.01643 355.13982 231.46875 445.78125 231.46875 C 469.35095 231.46875 491.74097 226.47512 512 217.53125 L 512 195.53125 C 491.79742 206.38392 468.69367 212.53125 444.15625 212.53125 C 364.8791 212.53125 300.5625 148.27715 300.5625 69 C 300.5625 43.989601 306.96361 20.471323 318.21875 0 L 296.0625 0 z M 398.25 0 C 398.07052 2.5490694 397.96875 5.1239204 397.96875 7.71875 C 397.96875 67.642884 446.60712 116.25 506.53125 116.25 C 508.36729 116.25 510.18647 116.21521 512 116.125 L 512 93.5 C 510.1906 93.61365 508.36935 93.6875 506.53125 93.6875 C 459.05671 93.6875 420.5 55.193478 420.5 7.71875 C 420.5 5.1143558 420.61682 2.545131 420.84375 0 L 398.25 0 z M 0 195 L 0 218 C 1.8474752 217.96643 3.7069605 217.9375 5.5625 217.9375 C 6.7547038 217.9375 7.9363595 217.9545 9.125 217.96875 C 26.977488 221.98215 40.3125 237.93524 40.3125 257 C 40.3125 279.09262 22.404935 297 0.3125 297 C 0.20785163 297 0.10427329 297.00075 0 297 L 0 319 C 0.10464837 319.00056 0.20766408 319 0.3125 319 C 34.555586 319 62.3125 291.24327 62.3125 257 C 62.3125 243.7948 58.160822 231.55637 51.125 221.5 C 175.32405 241.04824 273.41922 339.20769 292.875 463.4375 C 282.56226 455.78298 269.79921 451.25 255.96875 451.25 C 222.14501 451.25 194.63827 478.33642 193.96875 512 L 215.96875 512 C 216.6304 490.48594 234.29453 473.25 255.96875 473.25 C 277.64297 473.25 295.27698 490.48594 295.9375 512 L 318.375 512 C 317.32214 341.24517 181.72673 202.39971 12.25 196.15625 C 8.386262 195.40252 4.3967873 195 0.3125 195 C 0.20710146 195 0.105211 194.99944 0 195 z M 1.625 400.59375 C 1.0843167 400.59375 0.53880784 400.6175 0 400.625 L 0 422.625 C 0.54368393 422.61544 1.0790656 422.59375 1.625 422.59375 C 51.139434 422.59375 91.317924 462.56527 91.65625 512 L 113.65625 512 C 113.32093 450.41218 63.291773 400.59375 1.625 400.59375 z "
       transform="matrix(0.05332142,0,0,0.05332142,410.4765,969.52153)"
       id="path4567" />
  </g>
</svg>
