<?xml version="1.0" encoding="UTF-8" standalone="no"?>
<!-- Generator: IcoMoon.io -->

<svg
   xmlns:dc="http://purl.org/dc/elements/1.1/"
   xmlns:cc="http://creativecommons.org/ns#"
   xmlns:rdf="http://www.w3.org/1999/02/22-rdf-syntax-ns#"
   xmlns:svg="http://www.w3.org/2000/svg"
   xmlns="http://www.w3.org/2000/svg"
   xmlns:sodipodi="http://sodipodi.sourceforge.net/DTD/sodipodi-0.dtd"
   xmlns:inkscape="http://www.inkscape.org/namespaces/inkscape"
   width="512"
   height="512"
   viewBox="0 0 512 512"
   id="svg2"
   version="1.1"
   inkscape:version="0.48.3.1 r9886"
   sodipodi:docname="a.svg">
  <metadata
     id="metadata74">
    <rdf:RDF>
      <cc:Work
         rdf:about="">
        <dc:format>image/svg+xml</dc:format>
        <dc:type
           rdf:resource="http://purl.org/dc/dcmitype/StillImage" />
        <dc:title></dc:title>
      </cc:Work>
    </rdf:RDF>
  </metadata>
  <defs
     id="defs72" />
  <sodipodi:namedview
     pagecolor="#ffffff"
     bordercolor="#666666"
     borderopacity="1"
     objecttolerance="10"
     gridtolerance="10"
     guidetolerance="10"
     inkscape:pageopacity="0"
     inkscape:pageshadow="2"
     inkscape:window-width="1082"
     inkscape:window-height="637"
     id="namedview70"
     showgrid="false"
     inkscape:zoom="0.62952194"
     inkscape:cx="479.01958"
     inkscape:cy="204.22931"
     inkscape:window-x="7"
     inkscape:window-y="24"
     inkscape:window-maximized="0"
     inkscape:current-layer="g34392" />
  <g
     id="g4">
    <line
       y2="512"
       y1="0"
       x2="32"
       x1="32"
       id="line6"
       stroke="#B35047" />
    <line
       y2="512"
       y1="0"
       x2="64"
       x1="64"
       id="line8"
       stroke="#B35047" />
    <line
       y2="512"
       y1="0"
       x2="96"
       x1="96"
       id="line10"
       stroke="#B35047" />
    <line
       y2="512"
       y1="0"
       x2="128"
       x1="128"
       id="line12"
       stroke="#B35047" />
    <line
       y2="512"
       y1="0"
       x2="160"
       x1="160"
       id="line14"
       stroke="#B35047" />
    <line
       y2="512"
       y1="0"
       x2="192"
       x1="192"
       id="line16"
       stroke="#B35047" />
    <line
       y2="512"
       y1="0"
       x2="224"
       x1="224"
       id="line18"
       stroke="#B35047" />
    <line
       y2="512"
       y1="0"
       x2="256"
       x1="256"
       id="line20"
       stroke="#B35047" />
    <line
       y2="512"
       y1="0"
       x2="288"
       x1="288"
       id="line22"
       stroke="#B35047" />
    <line
       y2="512"
       y1="0"
       x2="320"
       x1="320"
       id="line24"
       stroke="#B35047" />
    <line
       y2="512"
       y1="0"
       x2="352"
       x1="352"
       id="line26"
       stroke="#B35047" />
    <line
       y2="512"
       y1="0"
       x2="384"
       x1="384"
       id="line28"
       stroke="#B35047" />
    <line
       y2="512"
       y1="0"
       x2="416"
       x1="416"
       id="line30"
       stroke="#B35047" />
    <line
       y2="512"
       y1="0"
       x2="448"
       x1="448"
       id="line32"
       stroke="#B35047" />
    <line
       y2="512"
       y1="0"
       x2="480"
       x1="480"
       id="line34"
       stroke="#B35047" />
    <line
       y2="32"
       y1="32"
       x2="512"
       x1="0"
       id="line36"
       stroke="#B35047" />
    <line
       y2="64"
       y1="64"
       x2="512"
       x1="0"
       id="line38"
       stroke="#B35047" />
    <line
       y2="96"
       y1="96"
       x2="512"
       x1="0"
       id="line40"
       stroke="#B35047" />
    <line
       y2="128"
       y1="128"
       x2="512"
       x1="0"
       id="line42"
       stroke="#B35047" />
    <line
       y2="160"
       y1="160"
       x2="512"
       x1="0"
       id="line44"
       stroke="#B35047" />
    <line
       y2="192"
       y1="192"
       x2="512"
       x1="0"
       id="line46"
       stroke="#B35047" />
    <line
       y2="224"
       y1="224"
       x2="512"
       x1="0"
       id="line48"
       stroke="#B35047" />
    <line
       y2="256"
       y1="256"
       x2="512"
       x1="0"
       id="line50"
       stroke="#B35047" />
    <line
       y2="288"
       y1="288"
       x2="512"
       x1="0"
       id="line52"
       stroke="#B35047" />
    <line
       y2="320"
       y1="320"
       x2="512"
       x1="0"
       id="line54"
       stroke="#B35047" />
    <line
       y2="352"
       y1="352"
       x2="512"
       x1="0"
       id="line56"
       stroke="#B35047" />
    <line
       y2="384"
       y1="384"
       x2="512"
       x1="0"
       id="line58"
       stroke="#B35047" />
    <line
       y2="416"
       y1="416"
       x2="512"
       x1="0"
       id="line60"
       stroke="#B35047" />
    <line
       y2="448"
       y1="448"
       x2="512"
       x1="0"
       id="line62"
       stroke="#B35047" />
    <line
       y2="480"
       y1="480"
       x2="512"
       x1="0"
       id="line64"
       stroke="#B35047" />
    <rect
       height="512"
       width="512"
       y="0"
       x="0"
       id="rect66"
       stroke="#B35047"
       fill="none" />
  </g>
  <g
     id="g22601"
     transform="matrix(18.33654,0,0,18.33654,-5773.1906,-21749.694)"
     style="fill:#000000">
    <g
       id="g22603"
       transform="translate(0,2.1027054)"
       style="fill:#000000">
      <g
         style="font-size:24.81047249px;font-style:normal;font-variant:normal;font-weight:bold;font-stretch:normal;line-height:125%;letter-spacing:0px;word-spacing:0px;fill:#008080;fill-opacity:1;stroke:none;font-family:Tibetan Machine Uni;-inkscape-font-specification:Tibetan Machine Uni Bold"
         id="text22661" />
    </g>
  </g>
  <g
     transform="matrix(18.754189,0,0,18.754189,-7698.1539,-18182.59)"
     id="g34392"
     style="fill:#000000">
    <path
       style="font-size:medium;font-style:normal;font-variant:normal;font-weight:normal;font-stretch:normal;text-indent:0;text-align:start;text-decoration:none;line-height:normal;letter-spacing:normal;word-spacing:normal;text-transform:none;direction:ltr;block-progression:tb;writing-mode:lr-tb;text-anchor:start;baseline-shift:baseline;color:#000000;fill:#000000;fill-opacity:1;stroke:none;stroke-width:22;marker:none;visibility:visible;display:inline;overflow:visible;enable-background:accumulate;font-family:Sans;-inkscape-font-specification:Sans"
       d="M 415.34541,969.52153 C 415.34541,971.18505 415.34541,972.84856 415.34541,974.51208 C 413.72244,974.51208 412.09947,974.51208 410.4765,974.51208 C 410.59694,974.85988 410.21378,975.71128 410.70815,975.68515 C 412.25391,975.68515 413.79966,975.68515 415.34541,975.68515 C 415.34541,977.11317 415.34541,978.54118 415.34541,979.9692 C 413.72244,979.9692 412.09947,979.9692 410.4765,979.9692 C 410.59694,980.317 410.21378,981.16839 410.70815,981.14227 C 412.25391,981.14227 413.79966,981.14227 415.34541,981.14227 C 415.34251,982.57092 415.34229,983.99767 415.34541,985.42631 C 413.72244,985.42631 412.09947,985.42631 410.4765,985.42631 C 410.59131,985.79539 410.19501,986.68092 410.78535,986.56951 C 412.50144,986.5517 414.21753,986.53388 415.93361,986.51607 C 416.70598,988.41808 418.14354,990.04571 419.96271,991.00506 C 416.8007,990.95799 413.63914,990.8597 410.4765,990.88176 C 410.59694,991.22956 410.21378,992.08096 410.70815,992.05483 C 412.25391,992.05483 413.79966,992.05483 415.34541,992.05483 C 415.34541,993.64392 415.34541,995.23301 415.34541,996.8221 C 415.69321,996.70166 416.54461,997.08481 416.51848,996.59044 C 416.51848,995.07857 416.51848,993.5667 416.51848,992.05483 C 417.9465,992.05483 419.37451,992.05483 420.80253,992.05483 C 420.80253,993.64392 420.80253,995.23301 420.80253,996.8221 C 421.15033,996.70166 422.00172,997.08481 421.9756,996.59044 C 421.9756,995.07857 421.9756,993.5667 421.9756,992.05483 C 423.40306,992.05483 424.83052,992.05483 426.25797,992.05483 C 426.25797,993.64392 426.25797,995.23301 426.25797,996.8221 C 426.61203,996.70561 427.48961,997.10721 427.36116,996.51324 C 427.34335,994.81271 427.32555,993.11217 427.30774,991.41164 C 429.21648,990.65632 430.83634,989.20311 431.79674,987.3892 C 431.72012,990.53646 431.70169,993.67397 431.71509,996.8221 C 432.06289,996.70166 432.91429,997.08481 432.88816,996.59044 C 432.88816,995.07857 432.88816,993.5667 432.88816,992.05483 C 434.5178,992.05483 436.14743,992.05483 437.77707,992.05483 C 437.65663,991.70703 438.03978,990.85563 437.54541,990.88176 C 435.993,990.88176 434.44058,990.88176 432.88816,990.88176 C 432.88816,989.4543 432.88816,988.02684 432.88816,986.59938 C 434.5178,986.59938 436.14743,986.59938 437.77707,986.59938 C 437.65663,986.25158 438.03978,985.40018 437.54541,985.42631 C 435.993,985.42631 434.44058,985.42631 432.88816,985.42631 C 432.88816,983.9983 432.88816,982.57028 432.88816,981.14227 C 434.5178,981.14227 436.14743,981.14227 437.77707,981.14227 C 437.66121,980.7837 438.06093,979.90409 437.46821,980.02744 C 435.72824,980.0458 433.98827,980.06415 432.2483,980.0825 C 431.44197,978.20502 430.04809,976.55894 428.23253,975.59351 C 431.41369,975.66332 434.5951,975.70488 437.77707,975.68515 C 437.65663,975.33735 438.03978,974.48595 437.54541,974.51208 C 435.993,974.51208 434.44058,974.51208 432.88816,974.51208 C 432.88816,972.84856 432.88816,971.18505 432.88816,969.52153 C 432.54036,969.64197 431.68896,969.25881 431.71509,969.75318 C 431.71509,971.33948 431.71509,972.92578 431.71509,974.51208 C 430.28707,974.51208 428.85906,974.51208 427.43105,974.51208 C 427.43105,972.84856 427.43105,971.18505 427.43105,969.52153 C 427.08325,969.64197 426.23185,969.25881 426.25797,969.75318 C 426.25797,971.33948 426.25797,972.92578 426.25797,974.51208 C 424.83052,974.51208 423.40306,974.51208 421.9756,974.51208 C 421.9756,972.84856 421.9756,971.18505 421.9756,969.52153 C 421.61015,969.63664 420.7269,969.23931 420.8424,969.83038 C 420.86077,971.59202 420.87914,973.35365 420.89751,975.11528 C 419.01923,975.89001 417.38379,977.27583 416.41017,979.0694 C 416.46667,975.88696 416.54422,972.70471 416.51848,969.52153 C 416.12746,969.52153 415.73644,969.52153 415.34541,969.52153 z M 424.10179,975.62017 C 427.72079,975.54849 431.10745,978.37769 431.67843,981.95375 C 432.40796,985.54124 430.15424,989.38322 426.70858,990.55889 C 423.38368,991.82787 419.333,990.38555 417.53267,987.32685 C 415.66566,984.38803 416.18267,980.23042 418.703,977.83134 C 420.12423,976.426 422.10133,975.6096 424.10179,975.62017 z"
       id="path3378"
       inkscape:connector-curvature="0" />
  </g>
</svg>
