<?xml version="1.0" encoding="UTF-8" standalone="no"?>
<!-- Generator: IcoMoon.io -->

<svg
   xmlns:dc="http://purl.org/dc/elements/1.1/"
   xmlns:cc="http://creativecommons.org/ns#"
   xmlns:rdf="http://www.w3.org/1999/02/22-rdf-syntax-ns#"
   xmlns:svg="http://www.w3.org/2000/svg"
   xmlns="http://www.w3.org/2000/svg"
   xmlns:sodipodi="http://sodipodi.sourceforge.net/DTD/sodipodi-0.dtd"
   xmlns:inkscape="http://www.inkscape.org/namespaces/inkscape"
   width="512"
   height="512"
   viewBox="0 0 512 512"
   id="svg2"
   version="1.1"
   inkscape:version="0.48.3.1 r9886"
   sodipodi:docname="h.svg">
  <metadata
     id="metadata74">
    <rdf:RDF>
      <cc:Work
         rdf:about="">
        <dc:format>image/svg+xml</dc:format>
        <dc:type
           rdf:resource="http://purl.org/dc/dcmitype/StillImage" />
        <dc:title></dc:title>
      </cc:Work>
    </rdf:RDF>
  </metadata>
  <defs
     id="defs72" />
  <sodipodi:namedview
     pagecolor="#ffffff"
     bordercolor="#666666"
     borderopacity="1"
     objecttolerance="10"
     gridtolerance="10"
     guidetolerance="10"
     inkscape:pageopacity="0"
     inkscape:pageshadow="2"
     inkscape:window-width="1082"
     inkscape:window-height="637"
     id="namedview70"
     showgrid="false"
     inkscape:zoom="0.89900682"
     inkscape:cx="299.52405"
     inkscape:cy="238.17233"
     inkscape:window-x="7"
     inkscape:window-y="24"
     inkscape:window-maximized="0"
     inkscape:current-layer="g34392"
     showguides="true"
     inkscape:guide-bbox="true" />
  <g
     id="g4">
    <line
       y2="512"
       y1="0"
       x2="32"
       x1="32"
       id="line6"
       stroke="#B35047" />
    <line
       y2="512"
       y1="0"
       x2="64"
       x1="64"
       id="line8"
       stroke="#B35047" />
    <line
       y2="512"
       y1="0"
       x2="96"
       x1="96"
       id="line10"
       stroke="#B35047" />
    <line
       y2="512"
       y1="0"
       x2="128"
       x1="128"
       id="line12"
       stroke="#B35047" />
    <line
       y2="512"
       y1="0"
       x2="160"
       x1="160"
       id="line14"
       stroke="#B35047" />
    <line
       y2="512"
       y1="0"
       x2="192"
       x1="192"
       id="line16"
       stroke="#B35047" />
    <line
       y2="512"
       y1="0"
       x2="224"
       x1="224"
       id="line18"
       stroke="#B35047" />
    <line
       y2="512"
       y1="0"
       x2="256"
       x1="256"
       id="line20"
       stroke="#B35047" />
    <line
       y2="512"
       y1="0"
       x2="288"
       x1="288"
       id="line22"
       stroke="#B35047" />
    <line
       y2="512"
       y1="0"
       x2="320"
       x1="320"
       id="line24"
       stroke="#B35047" />
    <line
       y2="512"
       y1="0"
       x2="352"
       x1="352"
       id="line26"
       stroke="#B35047" />
    <line
       y2="512"
       y1="0"
       x2="384"
       x1="384"
       id="line28"
       stroke="#B35047" />
    <line
       y2="512"
       y1="0"
       x2="416"
       x1="416"
       id="line30"
       stroke="#B35047" />
    <line
       y2="512"
       y1="0"
       x2="448"
       x1="448"
       id="line32"
       stroke="#B35047" />
    <line
       y2="512"
       y1="0"
       x2="480"
       x1="480"
       id="line34"
       stroke="#B35047" />
    <line
       y2="32"
       y1="32"
       x2="512"
       x1="0"
       id="line36"
       stroke="#B35047" />
    <line
       y2="64"
       y1="64"
       x2="512"
       x1="0"
       id="line38"
       stroke="#B35047" />
    <line
       y2="96"
       y1="96"
       x2="512"
       x1="0"
       id="line40"
       stroke="#B35047" />
    <line
       y2="128"
       y1="128"
       x2="512"
       x1="0"
       id="line42"
       stroke="#B35047" />
    <line
       y2="160"
       y1="160"
       x2="512"
       x1="0"
       id="line44"
       stroke="#B35047" />
    <line
       y2="192"
       y1="192"
       x2="512"
       x1="0"
       id="line46"
       stroke="#B35047" />
    <line
       y2="224"
       y1="224"
       x2="512"
       x1="0"
       id="line48"
       stroke="#B35047" />
    <line
       y2="256"
       y1="256"
       x2="512"
       x1="0"
       id="line50"
       stroke="#B35047" />
    <line
       y2="288"
       y1="288"
       x2="512"
       x1="0"
       id="line52"
       stroke="#B35047" />
    <line
       y2="320"
       y1="320"
       x2="512"
       x1="0"
       id="line54"
       stroke="#B35047" />
    <line
       y2="352"
       y1="352"
       x2="512"
       x1="0"
       id="line56"
       stroke="#B35047" />
    <line
       y2="384"
       y1="384"
       x2="512"
       x1="0"
       id="line58"
       stroke="#B35047" />
    <line
       y2="416"
       y1="416"
       x2="512"
       x1="0"
       id="line60"
       stroke="#B35047" />
    <line
       y2="448"
       y1="448"
       x2="512"
       x1="0"
       id="line62"
       stroke="#B35047" />
    <line
       y2="480"
       y1="480"
       x2="512"
       x1="0"
       id="line64"
       stroke="#B35047" />
    <rect
       height="512"
       width="512"
       y="0"
       x="0"
       id="rect66"
       stroke="#B35047"
       fill="none" />
  </g>
  <g
     id="g22601"
     transform="matrix(18.33654,0,0,18.33654,-5773.1906,-21749.694)"
     style="fill:#000000">
    <g
       id="g22603"
       transform="translate(0,2.1027054)"
       style="fill:#000000">
      <g
         style="font-size:24.81047249px;font-style:normal;font-variant:normal;font-weight:bold;font-stretch:normal;line-height:125%;letter-spacing:0px;word-spacing:0px;fill:#008080;fill-opacity:1;stroke:none;font-family:Tibetan Machine Uni;-inkscape-font-specification:Tibetan Machine Uni Bold"
         id="text22661" />
    </g>
  </g>
  <g
     transform="matrix(18.754189,0,0,18.754189,-7698.1539,-18182.59)"
     id="g34392"
     style="fill:#000000">
    <path
       style="color:#000000;fill:#000000;fill-opacity:1;fill-rule:nonzero;stroke:none;stroke-width:22;marker:none;visibility:visible;display:inline;overflow:visible;enable-background:accumulate"
       d="M 294.53125 -0.03125 L 295.3125 73.8125 L 215.59375 0 L 193.65625 0 L 318.34375 115.125 L 318.34375 -0.03125 L 294.53125 -0.03125 z M 91.375 0 L 512.34375 419.875 L 512.34375 397.875 L 112.8125 0 L 91.375 0 z M 398.34375 0 L 397.96875 115.6875 L 512 115.65625 L 512.09375 93.5625 L 420.84375 93.5625 L 420.46875 0 L 398.34375 0 z M 0 93.46875 L 0 115.46875 L 399.5 513.59375 L 420.96875 513.59375 L 0 93.46875 z M 398.1875 192.25 L 511.78125 317.8125 L 511.78125 295.78125 L 439.5 215.28125 L 511.78125 215.34375 L 511.78125 193.09375 L 398.1875 192.25 z M 0 195.8125 L 0 217.84375 L 72.28125 298.34375 L 0 298.28125 L 0 320.53125 L 113.59375 321.375 L 0 195.8125 z M 193 396.84375 L 193 512 L 216.84375 512 L 216.03125 438.125 L 296.25 512 L 317.6875 512 L 193 396.84375 z M 113.8125 400.5 L 0 400.53125 L -0.40625 422.65625 L 90.9375 422.65625 L 91.3125 512 L 113.4375 512 L 113.8125 400.5 z "
       transform="matrix(0.05332142,0,0,0.05332142,410.4765,969.52153)"
       id="path6224" />
  </g>
</svg>
