<?xml version="1.0" encoding="UTF-8" standalone="no"?>
<!-- Generator: IcoMoon.io -->

<svg
   xmlns:dc="http://purl.org/dc/elements/1.1/"
   xmlns:cc="http://creativecommons.org/ns#"
   xmlns:rdf="http://www.w3.org/1999/02/22-rdf-syntax-ns#"
   xmlns:svg="http://www.w3.org/2000/svg"
   xmlns="http://www.w3.org/2000/svg"
   xmlns:sodipodi="http://sodipodi.sourceforge.net/DTD/sodipodi-0.dtd"
   xmlns:inkscape="http://www.inkscape.org/namespaces/inkscape"
   width="512"
   height="512"
   viewBox="0 0 512 512"
   id="svg2"
   version="1.1"
   inkscape:version="0.48.3.1 r9886"
   sodipodi:docname="j.svg">
  <metadata
     id="metadata74">
    <rdf:RDF>
      <cc:Work
         rdf:about="">
        <dc:format>image/svg+xml</dc:format>
        <dc:type
           rdf:resource="http://purl.org/dc/dcmitype/StillImage" />
        <dc:title></dc:title>
      </cc:Work>
    </rdf:RDF>
  </metadata>
  <defs
     id="defs72" />
  <sodipodi:namedview
     pagecolor="#ffffff"
     bordercolor="#666666"
     borderopacity="1"
     objecttolerance="10"
     gridtolerance="10"
     guidetolerance="10"
     inkscape:pageopacity="0"
     inkscape:pageshadow="2"
     inkscape:window-width="1082"
     inkscape:window-height="637"
     id="namedview70"
     showgrid="false"
     inkscape:zoom="0.46120994"
     inkscape:cx="459.14778"
     inkscape:cy="106.01421"
     inkscape:window-x="7"
     inkscape:window-y="24"
     inkscape:window-maximized="0"
     inkscape:current-layer="svg2"
     showguides="true"
     inkscape:guide-bbox="true"
     inkscape:snap-global="false" />
  <g
     id="g4">
    <line
       y2="512"
       y1="0"
       x2="32"
       x1="32"
       id="line6"
       stroke="#B35047" />
    <line
       y2="512"
       y1="0"
       x2="64"
       x1="64"
       id="line8"
       stroke="#B35047" />
    <line
       y2="512"
       y1="0"
       x2="96"
       x1="96"
       id="line10"
       stroke="#B35047" />
    <line
       y2="512"
       y1="0"
       x2="128"
       x1="128"
       id="line12"
       stroke="#B35047" />
    <line
       y2="512"
       y1="0"
       x2="160"
       x1="160"
       id="line14"
       stroke="#B35047" />
    <line
       y2="512"
       y1="0"
       x2="192"
       x1="192"
       id="line16"
       stroke="#B35047" />
    <line
       y2="512"
       y1="0"
       x2="224"
       x1="224"
       id="line18"
       stroke="#B35047" />
    <line
       y2="512"
       y1="0"
       x2="256"
       x1="256"
       id="line20"
       stroke="#B35047" />
    <line
       y2="512"
       y1="0"
       x2="288"
       x1="288"
       id="line22"
       stroke="#B35047" />
    <line
       y2="512"
       y1="0"
       x2="320"
       x1="320"
       id="line24"
       stroke="#B35047" />
    <line
       y2="512"
       y1="0"
       x2="352"
       x1="352"
       id="line26"
       stroke="#B35047" />
    <line
       y2="512"
       y1="0"
       x2="384"
       x1="384"
       id="line28"
       stroke="#B35047" />
    <line
       y2="512"
       y1="0"
       x2="416"
       x1="416"
       id="line30"
       stroke="#B35047" />
    <line
       y2="512"
       y1="0"
       x2="448"
       x1="448"
       id="line32"
       stroke="#B35047" />
    <line
       y2="512"
       y1="0"
       x2="480"
       x1="480"
       id="line34"
       stroke="#B35047" />
    <line
       y2="32"
       y1="32"
       x2="512"
       x1="0"
       id="line36"
       stroke="#B35047" />
    <line
       y2="64"
       y1="64"
       x2="512"
       x1="0"
       id="line38"
       stroke="#B35047" />
    <line
       y2="96"
       y1="96"
       x2="512"
       x1="0"
       id="line40"
       stroke="#B35047" />
    <line
       y2="128"
       y1="128"
       x2="512"
       x1="0"
       id="line42"
       stroke="#B35047" />
    <line
       y2="160"
       y1="160"
       x2="512"
       x1="0"
       id="line44"
       stroke="#B35047" />
    <line
       y2="192"
       y1="192"
       x2="512"
       x1="0"
       id="line46"
       stroke="#B35047" />
    <line
       y2="224"
       y1="224"
       x2="512"
       x1="0"
       id="line48"
       stroke="#B35047" />
    <line
       y2="256"
       y1="256"
       x2="512"
       x1="0"
       id="line50"
       stroke="#B35047" />
    <line
       y2="288"
       y1="288"
       x2="512"
       x1="0"
       id="line52"
       stroke="#B35047" />
    <line
       y2="320"
       y1="320"
       x2="512"
       x1="0"
       id="line54"
       stroke="#B35047" />
    <line
       y2="352"
       y1="352"
       x2="512"
       x1="0"
       id="line56"
       stroke="#B35047" />
    <line
       y2="384"
       y1="384"
       x2="512"
       x1="0"
       id="line58"
       stroke="#B35047" />
    <line
       y2="416"
       y1="416"
       x2="512"
       x1="0"
       id="line60"
       stroke="#B35047" />
    <line
       y2="448"
       y1="448"
       x2="512"
       x1="0"
       id="line62"
       stroke="#B35047" />
    <line
       y2="480"
       y1="480"
       x2="512"
       x1="0"
       id="line64"
       stroke="#B35047" />
    <rect
       height="512"
       width="512"
       y="0"
       x="0"
       id="rect66"
       stroke="#B35047"
       fill="none" />
  </g>
  <g
     id="g22601"
     transform="matrix(18.33654,0,0,18.33654,-5773.1906,-21749.694)"
     style="fill:#000000">
    <g
       id="g22603"
       transform="translate(0,2.1027054)"
       style="fill:#000000">
      <g
         style="font-size:24.81047249px;font-style:normal;font-variant:normal;font-weight:bold;font-stretch:normal;line-height:125%;letter-spacing:0px;word-spacing:0px;fill:#008080;fill-opacity:1;stroke:none;font-family:Tibetan Machine Uni;-inkscape-font-specification:Tibetan Machine Uni Bold"
         id="text22661" />
    </g>
  </g>
  <g
     transform="matrix(18.754189,0,0,18.754189,-7698.1539,-18182.59)"
     id="g34392"
     style="fill:#000000" />
  <path
     inkscape:connector-curvature="0"
     style="color:#000000;fill:#000000;fill-opacity:1;fill-rule:nonzero;stroke:none;stroke-width:22;marker:none;visibility:visible;display:inline;overflow:visible;enable-background:accumulate"
     d="M 90.90625,3.1875 C 92.815921,92.298843 165.64933,163.9375 255.21875,163.9375 C 344.78819,163.9375 417.59113,92.298843 419.5,3.1875 L 397.53125,3.1875 C 395.63117,80.151099 332.64021,141.9375 255.21875,141.9375 C 177.79732,141.9375 114.776,80.151099 112.875,3.1875 L 90.90625,3.1875 z M 193.3125,3.1875 C 195.17815,35.755818 222.18343,61.59375 255.21875,61.59375 C 288.25408,61.59375 315.23015,35.755818 317.09375,3.1875 L 295.03125,3.1875 C 293.21461,23.596421 276.10034,39.59375 255.21875,39.59375 C 234.33717,39.59375 217.1947,23.596421 215.375,3.1875 L 193.3125,3.1875 z M 511.6875,93.59375 C 420.91877,93.59375 347.3125,167.16875 347.3125,257.9375 C 347.3125,348.70622 420.91877,422.28125 511.6875,422.28125 C 512.15683,422.28125 512.62535,422.25393 513.09375,422.25 L 513.09375,400.28125 C 512.62639,400.28576 512.15593,400.28125 511.6875,400.28125 C 433.06888,400.28125 369.3125,336.55612 369.3125,257.9375 C 369.3125,179.31885 433.06888,115.59375 511.6875,115.59375 C 512.15593,115.59375 512.62639,115.58924 513.09375,115.59375 L 513.09375,93.625 C 512.62535,93.621074 512.15683,93.59375 511.6875,93.59375 z M 0,93.90625 L 0,115.90625 C 78.618656,115.90625 142.34375,179.63135 142.34375,258.25 C 142.34375,336.86862 78.618656,400.59375 0,400.59375 L 0,422.59375 C 90.768756,422.59375 164.34375,349.01872 164.34375,258.25 C 164.34375,167.48125 90.768756,93.90625 0,93.90625 z M 511.6875,195.9375 C 477.44427,195.9375 449.65625,223.69426 449.65625,257.9375 C 449.65625,292.18073 477.44427,319.9375 511.6875,319.9375 C 512.1595,319.9375 512.62427,319.91674 513.09375,319.90625 L 513.09375,297.90625 C 512.62707,297.92237 512.15811,297.9375 511.6875,297.9375 C 489.59489,297.9375 471.65625,280.03011 471.65625,257.9375 C 471.65625,235.84488 489.59489,217.9375 511.6875,217.9375 C 512.15811,217.9375 512.62707,217.95263 513.09375,217.96875 L 513.09375,195.96875 C 512.62427,195.95826 512.1595,195.9375 511.6875,195.9375 z M 0,196.46875 L 0,218.46875 C 22.09262,218.46875 40,236.37613 40,258.46875 C 40,280.56136 22.09262,298.46875 0,298.46875 L 0,320.46875 C 34.243243,320.46875 62,292.71198 62,258.46875 C 62,224.22551 34.243243,196.46875 0,196.46875 z M 255.6875,346.3125 C 164.91877,346.3125 91.3125,419.8875 91.3125,510.65625 C 91.3125,511.81386 91.351173,512.9731 91.375,514.125 L 113.34375,514.125 C 113.31636,512.97604 113.3125,511.8118 113.3125,510.65625 C 113.3125,432.0376 177.06888,368.3125 255.6875,368.3125 C 334.30616,368.3125 398.03125,432.0376 398.03125,510.65625 C 398.03125,511.8118 398.02738,512.97604 398,514.125 L 419.96875,514.125 C 419.99257,512.9731 420.03125,511.81386 420.03125,510.65625 C 420.03125,419.8875 346.45626,346.3125 255.6875,346.3125 z M 255.84375,448.375 C 221.52287,448.375 193.65625,476.13176 193.65625,510.375 C 193.65625,511.63563 193.70678,512.88301 193.78125,514.125 L 215.90625,514.125 C 215.79114,512.89113 215.71875,511.63883 215.71875,510.375 C 215.71875,488.28238 233.70104,470.375 255.84375,470.375 C 277.98646,470.375 295.90625,488.28238 295.90625,510.375 C 295.90625,511.63883 295.83347,512.89113 295.71875,514.125 L 317.84375,514.125 C 317.91805,512.88301 317.96875,511.63563 317.96875,510.375 C 317.96875,476.13176 290.16463,448.375 255.84375,448.375 z"
     id="path4602" />
</svg>
