<?xml version="1.0" encoding="UTF-8" standalone="no"?>
<!-- Generator: IcoMoon.io -->

<svg
   xmlns:dc="http://purl.org/dc/elements/1.1/"
   xmlns:cc="http://creativecommons.org/ns#"
   xmlns:rdf="http://www.w3.org/1999/02/22-rdf-syntax-ns#"
   xmlns:svg="http://www.w3.org/2000/svg"
   xmlns="http://www.w3.org/2000/svg"
   xmlns:sodipodi="http://sodipodi.sourceforge.net/DTD/sodipodi-0.dtd"
   xmlns:inkscape="http://www.inkscape.org/namespaces/inkscape"
   width="512"
   height="512"
   viewBox="0 0 512 512"
   id="svg2"
   version="1.1"
   inkscape:version="0.48.3.1 r9886"
   sodipodi:docname="k.svg">
  <metadata
     id="metadata74">
    <rdf:RDF>
      <cc:Work
         rdf:about="">
        <dc:format>image/svg+xml</dc:format>
        <dc:type
           rdf:resource="http://purl.org/dc/dcmitype/StillImage" />
        <dc:title></dc:title>
      </cc:Work>
    </rdf:RDF>
  </metadata>
  <defs
     id="defs72" />
  <sodipodi:namedview
     pagecolor="#ffffff"
     bordercolor="#666666"
     borderopacity="1"
     objecttolerance="10"
     gridtolerance="10"
     guidetolerance="10"
     inkscape:pageopacity="0"
     inkscape:pageshadow="2"
     inkscape:window-width="1082"
     inkscape:window-height="637"
     id="namedview70"
     showgrid="false"
     inkscape:zoom="0.76581072"
     inkscape:cx="409.23126"
     inkscape:cy="267.08911"
     inkscape:window-x="7"
     inkscape:window-y="24"
     inkscape:window-maximized="0"
     inkscape:current-layer="svg2"
     showguides="true"
     inkscape:guide-bbox="true"
     inkscape:snap-global="false" />
  <g
     id="g4">
    <line
       y2="512"
       y1="0"
       x2="32"
       x1="32"
       id="line6"
       stroke="#B35047" />
    <line
       y2="512"
       y1="0"
       x2="64"
       x1="64"
       id="line8"
       stroke="#B35047" />
    <line
       y2="512"
       y1="0"
       x2="96"
       x1="96"
       id="line10"
       stroke="#B35047" />
    <line
       y2="512"
       y1="0"
       x2="128"
       x1="128"
       id="line12"
       stroke="#B35047" />
    <line
       y2="512"
       y1="0"
       x2="160"
       x1="160"
       id="line14"
       stroke="#B35047" />
    <line
       y2="512"
       y1="0"
       x2="192"
       x1="192"
       id="line16"
       stroke="#B35047" />
    <line
       y2="512"
       y1="0"
       x2="224"
       x1="224"
       id="line18"
       stroke="#B35047" />
    <line
       y2="512"
       y1="0"
       x2="256"
       x1="256"
       id="line20"
       stroke="#B35047" />
    <line
       y2="512"
       y1="0"
       x2="288"
       x1="288"
       id="line22"
       stroke="#B35047" />
    <line
       y2="512"
       y1="0"
       x2="320"
       x1="320"
       id="line24"
       stroke="#B35047" />
    <line
       y2="512"
       y1="0"
       x2="352"
       x1="352"
       id="line26"
       stroke="#B35047" />
    <line
       y2="512"
       y1="0"
       x2="384"
       x1="384"
       id="line28"
       stroke="#B35047" />
    <line
       y2="512"
       y1="0"
       x2="416"
       x1="416"
       id="line30"
       stroke="#B35047" />
    <line
       y2="512"
       y1="0"
       x2="448"
       x1="448"
       id="line32"
       stroke="#B35047" />
    <line
       y2="512"
       y1="0"
       x2="480"
       x1="480"
       id="line34"
       stroke="#B35047" />
    <line
       y2="32"
       y1="32"
       x2="512"
       x1="0"
       id="line36"
       stroke="#B35047" />
    <line
       y2="64"
       y1="64"
       x2="512"
       x1="0"
       id="line38"
       stroke="#B35047" />
    <line
       y2="96"
       y1="96"
       x2="512"
       x1="0"
       id="line40"
       stroke="#B35047" />
    <line
       y2="128"
       y1="128"
       x2="512"
       x1="0"
       id="line42"
       stroke="#B35047" />
    <line
       y2="160"
       y1="160"
       x2="512"
       x1="0"
       id="line44"
       stroke="#B35047" />
    <line
       y2="192"
       y1="192"
       x2="512"
       x1="0"
       id="line46"
       stroke="#B35047" />
    <line
       y2="224"
       y1="224"
       x2="512"
       x1="0"
       id="line48"
       stroke="#B35047" />
    <line
       y2="256"
       y1="256"
       x2="512"
       x1="0"
       id="line50"
       stroke="#B35047" />
    <line
       y2="288"
       y1="288"
       x2="512"
       x1="0"
       id="line52"
       stroke="#B35047" />
    <line
       y2="320"
       y1="320"
       x2="512"
       x1="0"
       id="line54"
       stroke="#B35047" />
    <line
       y2="352"
       y1="352"
       x2="512"
       x1="0"
       id="line56"
       stroke="#B35047" />
    <line
       y2="384"
       y1="384"
       x2="512"
       x1="0"
       id="line58"
       stroke="#B35047" />
    <line
       y2="416"
       y1="416"
       x2="512"
       x1="0"
       id="line60"
       stroke="#B35047" />
    <line
       y2="448"
       y1="448"
       x2="512"
       x1="0"
       id="line62"
       stroke="#B35047" />
    <line
       y2="480"
       y1="480"
       x2="512"
       x1="0"
       id="line64"
       stroke="#B35047" />
    <rect
       height="512"
       width="512"
       y="0"
       x="0"
       id="rect66"
       stroke="#B35047"
       fill="none" />
  </g>
  <g
     id="g22601"
     transform="matrix(18.33654,0,0,18.33654,-5773.1906,-21749.694)"
     style="fill:#000000">
    <g
       id="g22603"
       transform="translate(0,2.1027054)"
       style="fill:#000000">
      <g
         style="font-size:24.81047249px;font-style:normal;font-variant:normal;font-weight:bold;font-stretch:normal;line-height:125%;letter-spacing:0px;word-spacing:0px;fill:#008080;fill-opacity:1;stroke:none;font-family:Tibetan Machine Uni;-inkscape-font-specification:Tibetan Machine Uni Bold"
         id="text22661" />
    </g>
  </g>
  <path
     style="color:#000000;fill:#000000;fill-opacity:1;fill-rule:nonzero;stroke:none;stroke-width:22;marker:none;visibility:visible;display:inline;overflow:visible;enable-background:accumulate"
     d="M 90.78125 0 C 88.087111 141.96139 318.84413 422.20675 512 420.78125 L 512 420.15625 C 512.36483 420.14876 512.72939 420.12806 513.09375 420.125 L 513.09375 398.15625 C 512.62639 398.16076 512.15593 398.15625 511.6875 398.15625 C 441.47126 398.15625 383.14155 347.31427 371.46875 280.4375 C 371.3995 280.11017 371.34717 279.79432 371.28125 279.46875 C 368.03619 263.44291 368.7967 249.59512 370.25 240 C 370.23822 239.99128 370.23053 239.97747 370.21875 239.96875 C 378.10226 168.80814 438.42474 113.46875 511.6875 113.46875 C 512.15593 113.46875 512.62639 113.46424 513.09375 113.46875 L 513.09375 91.5 C 512.62535 91.496074 512.15683 91.46875 511.6875 91.46875 C 431.68272 91.46875 365.03134 148.63212 350.34375 224.34375 C 327.82725 205.52527 305.85367 183.28244 286.25 157.90625 C 361.034 143.61135 417.81731 78.677591 419.5 0.125 L 397.53125 0.125 C 395.76848 71.52693 341.41576 129.84754 271.75 137.90625 C 254.27908 112.1493 239.36276 83.597924 228.625 52.53125 C 236.6833 56.362098 245.70315 58.53125 255.21875 58.53125 C 288.25408 58.53125 315.23015 32.693318 317.09375 0.125 L 295.03125 0.125 C 293.21461 20.533921 276.10034 36.53125 255.21875 36.53125 C 234.33717 36.53125 217.1947 20.533921 215.375 0.125 L 215.15625 0.125 C 215.14896 0.082631557 215.13227 0.042375966 215.125 0 L 191.1875 0 C 191.0249 8.5679086 191.97849 17.792147 193.9375 27.5 L 194.5625 27.53125 C 214.21564 89.635173 242.37673 134.6844 261.6875 160.71875 C 261.71858 160.71754 261.75018 160.71997 261.78125 160.71875 C 268.03319 168.87082 274.61987 176.94957 281.46875 184.875 C 282.6116 186.09914 283.375 186.84375 283.375 186.84375 L 283.15625 186.8125 C 302.69131 209.20174 324.41953 230.3912 347.46875 249 C 347.37678 251.25713 347.3125 253.53279 347.3125 255.8125 C 347.3125 296.9106 362.40327 334.49759 387.34375 363.3125 C 277.74211 303.53555 142.96458 173.59596 112.90625 1.03125 C 112.89686 0.72827439 112.8825 0.42844975 112.875 0.125 L 112.75 0.125 C 112.74271 0.082619004 112.72602 0.042386122 112.71875 0 L 90.78125 0 z M 0 91.78125 L 0 113.78125 C 78.618656 113.78125 142.34375 177.50635 142.34375 256.125 C 142.34375 334.74362 78.618656 398.46875 0 398.46875 L 0 420.46875 C 90.768756 420.46875 164.34375 346.89372 164.34375 256.125 C 164.34375 165.35625 90.768756 91.78125 0 91.78125 z M 511.6875 193.8125 C 477.44427 193.8125 449.65625 221.56926 449.65625 255.8125 C 449.65625 267.77027 453.03763 278.93615 458.90625 288.40625 C 458.82337 288.37807 458.73922 288.34082 458.65625 288.3125 C 471.42788 305.78391 491.34076 313.85927 506.3125 319.03125 C 508.20944 319.08666 510.11181 319.10769 512 319.09375 L 512 317.8125 C 512.36512 317.80652 512.72855 317.78941 513.09375 317.78125 L 513.09375 295.78125 C 512.73073 295.79379 512.36549 295.80781 512 295.8125 L 512 295.3125 C 511.27034 295.47362 510.51446 295.62244 509.75 295.75 C 488.55425 294.7409 471.65625 277.25652 471.65625 255.8125 C 471.65625 233.71988 489.59489 215.8125 511.6875 215.8125 C 512.15811 215.8125 512.62707 215.82763 513.09375 215.84375 L 513.09375 193.84375 C 512.62427 193.83326 512.1595 193.8125 511.6875 193.8125 z M 0 194.34375 L 0 216.34375 C 22.09262 216.34375 40 234.25113 40 256.34375 C 40 278.43636 22.09262 296.34375 0 296.34375 L 0 318.34375 C 34.243243 318.34375 62 290.58698 62 256.34375 C 62 222.10051 34.243243 194.34375 0 194.34375 z M 255.6875 344.1875 C 164.91877 344.1875 91.3125 417.7625 91.3125 508.53125 C 91.3125 509.68886 91.351173 510.8481 91.375 512 L 113.34375 512 C 113.31636 510.85104 113.3125 509.6868 113.3125 508.53125 C 113.3125 429.9126 177.06888 366.1875 255.6875 366.1875 C 334.30616 366.1875 398.03125 429.9126 398.03125 508.53125 C 398.03125 509.6868 398.02738 510.85104 398 512 L 419.96875 512 C 419.99257 510.8481 420.03125 509.68886 420.03125 508.53125 C 420.03125 417.7625 346.45626 344.1875 255.6875 344.1875 z M 255.84375 446.25 C 221.52287 446.25 193.65625 474.00676 193.65625 508.25 C 193.65625 509.51063 193.70678 510.75801 193.78125 512 L 215.90625 512 C 215.79114 510.76613 215.71875 509.51383 215.71875 508.25 C 215.71875 486.15738 233.70104 468.25 255.84375 468.25 C 277.98646 468.25 295.90625 486.15738 295.90625 508.25 C 295.90625 509.51383 295.83347 510.76613 295.71875 512 L 317.84375 512 C 317.91805 510.75801 317.96875 509.51063 317.96875 508.25 C 317.96875 474.00676 290.16463 446.25 255.84375 446.25 z "
     id="path6566" />
</svg>
